<mxfile host="app.diagrams.net" agent="Mozilla/5.0 (Windows NT 10.0; Win64; x64) AppleWebKit/537.36 (KHTML, like Gecko) Chrome/136.0.0.0 Safari/537.36" version="27.0.3">
  <diagram name="Page-1" id="4unyHB10TsbCmYfOk58W">
    <mxGraphModel dx="1561" dy="766" grid="1" gridSize="10" guides="1" tooltips="1" connect="1" arrows="1" fold="1" page="0" pageScale="1" pageWidth="850" pageHeight="1100" math="0" shadow="0">
      <root>
        <mxCell id="0" />
        <mxCell id="1" parent="0" />
        <mxCell id="4ci64t6p32gvj298nVOF-14" value="" style="edgeStyle=orthogonalEdgeStyle;rounded=0;orthogonalLoop=1;jettySize=auto;html=1;" edge="1" parent="1" source="4ci64t6p32gvj298nVOF-1" target="4ci64t6p32gvj298nVOF-10">
          <mxGeometry relative="1" as="geometry" />
        </mxCell>
        <mxCell id="4ci64t6p32gvj298nVOF-1" value="START" style="whiteSpace=wrap;html=1;aspect=fixed;" vertex="1" parent="1">
          <mxGeometry x="415" y="30" width="50" height="50" as="geometry" />
        </mxCell>
        <mxCell id="4ci64t6p32gvj298nVOF-4" style="edgeStyle=orthogonalEdgeStyle;rounded=0;orthogonalLoop=1;jettySize=auto;html=1;exitX=0.5;exitY=1;exitDx=0;exitDy=0;" edge="1" parent="1" source="4ci64t6p32gvj298nVOF-1" target="4ci64t6p32gvj298nVOF-1">
          <mxGeometry relative="1" as="geometry" />
        </mxCell>
        <mxCell id="4ci64t6p32gvj298nVOF-24" value="" style="edgeStyle=orthogonalEdgeStyle;rounded=0;orthogonalLoop=1;jettySize=auto;html=1;" edge="1" parent="1" source="4ci64t6p32gvj298nVOF-10" target="4ci64t6p32gvj298nVOF-22">
          <mxGeometry relative="1" as="geometry" />
        </mxCell>
        <mxCell id="4ci64t6p32gvj298nVOF-10" value="GENERATE WORD" style="rounded=0;whiteSpace=wrap;html=1;" vertex="1" parent="1">
          <mxGeometry x="380" y="120" width="120" height="50" as="geometry" />
        </mxCell>
        <mxCell id="4ci64t6p32gvj298nVOF-19" value="" style="edgeStyle=orthogonalEdgeStyle;rounded=0;orthogonalLoop=1;jettySize=auto;html=1;" edge="1" parent="1" source="4ci64t6p32gvj298nVOF-12" target="4ci64t6p32gvj298nVOF-18">
          <mxGeometry relative="1" as="geometry" />
        </mxCell>
        <mxCell id="4ci64t6p32gvj298nVOF-12" value="INPUT LETTER" style="rounded=0;whiteSpace=wrap;html=1;" vertex="1" parent="1">
          <mxGeometry x="380" y="290" width="120" height="40" as="geometry" />
        </mxCell>
        <mxCell id="4ci64t6p32gvj298nVOF-13" style="edgeStyle=orthogonalEdgeStyle;rounded=0;orthogonalLoop=1;jettySize=auto;html=1;exitX=0.5;exitY=1;exitDx=0;exitDy=0;" edge="1" parent="1" source="4ci64t6p32gvj298nVOF-1" target="4ci64t6p32gvj298nVOF-1">
          <mxGeometry relative="1" as="geometry" />
        </mxCell>
        <mxCell id="4ci64t6p32gvj298nVOF-27" style="edgeStyle=orthogonalEdgeStyle;rounded=0;orthogonalLoop=1;jettySize=auto;html=1;entryX=0.5;entryY=0;entryDx=0;entryDy=0;" edge="1" parent="1" source="4ci64t6p32gvj298nVOF-18" target="4ci64t6p32gvj298nVOF-26">
          <mxGeometry relative="1" as="geometry" />
        </mxCell>
        <mxCell id="4ci64t6p32gvj298nVOF-30" style="edgeStyle=orthogonalEdgeStyle;rounded=0;orthogonalLoop=1;jettySize=auto;html=1;entryX=0.5;entryY=0;entryDx=0;entryDy=0;" edge="1" parent="1" source="4ci64t6p32gvj298nVOF-18" target="4ci64t6p32gvj298nVOF-21">
          <mxGeometry relative="1" as="geometry" />
        </mxCell>
        <mxCell id="4ci64t6p32gvj298nVOF-18" value="LETTER IN WORD?" style="rhombus;whiteSpace=wrap;html=1;" vertex="1" parent="1">
          <mxGeometry x="350" y="370" width="180" height="90" as="geometry" />
        </mxCell>
        <mxCell id="4ci64t6p32gvj298nVOF-34" value="" style="edgeStyle=orthogonalEdgeStyle;rounded=0;orthogonalLoop=1;jettySize=auto;html=1;" edge="1" parent="1" source="4ci64t6p32gvj298nVOF-21" target="4ci64t6p32gvj298nVOF-31">
          <mxGeometry relative="1" as="geometry" />
        </mxCell>
        <mxCell id="4ci64t6p32gvj298nVOF-21" value="LOSE A LIFE" style="rounded=0;whiteSpace=wrap;html=1;" vertex="1" parent="1">
          <mxGeometry x="580" y="480" width="120" height="40" as="geometry" />
        </mxCell>
        <mxCell id="4ci64t6p32gvj298nVOF-25" value="" style="edgeStyle=orthogonalEdgeStyle;rounded=0;orthogonalLoop=1;jettySize=auto;html=1;" edge="1" parent="1" source="4ci64t6p32gvj298nVOF-22" target="4ci64t6p32gvj298nVOF-12">
          <mxGeometry relative="1" as="geometry" />
        </mxCell>
        <mxCell id="4ci64t6p32gvj298nVOF-22" value="GENERATE BLANKS" style="rounded=0;whiteSpace=wrap;html=1;" vertex="1" parent="1">
          <mxGeometry x="390" y="200" width="100" height="50" as="geometry" />
        </mxCell>
        <mxCell id="4ci64t6p32gvj298nVOF-33" value="" style="edgeStyle=orthogonalEdgeStyle;rounded=0;orthogonalLoop=1;jettySize=auto;html=1;" edge="1" parent="1" source="4ci64t6p32gvj298nVOF-26" target="4ci64t6p32gvj298nVOF-29">
          <mxGeometry relative="1" as="geometry" />
        </mxCell>
        <mxCell id="4ci64t6p32gvj298nVOF-26" value="REPLACE BLANK&lt;div&gt;WITH LETTER&lt;/div&gt;" style="rounded=0;whiteSpace=wrap;html=1;" vertex="1" parent="1">
          <mxGeometry x="170" y="475" width="140" height="50" as="geometry" />
        </mxCell>
        <mxCell id="4ci64t6p32gvj298nVOF-38" style="edgeStyle=orthogonalEdgeStyle;rounded=0;orthogonalLoop=1;jettySize=auto;html=1;entryX=0.5;entryY=0;entryDx=0;entryDy=0;" edge="1" parent="1" source="4ci64t6p32gvj298nVOF-29" target="4ci64t6p32gvj298nVOF-32">
          <mxGeometry relative="1" as="geometry">
            <Array as="points">
              <mxPoint x="240" y="700" />
              <mxPoint x="440" y="700" />
            </Array>
          </mxGeometry>
        </mxCell>
        <mxCell id="4ci64t6p32gvj298nVOF-41" style="edgeStyle=orthogonalEdgeStyle;rounded=0;orthogonalLoop=1;jettySize=auto;html=1;entryX=0;entryY=0.5;entryDx=0;entryDy=0;" edge="1" parent="1" source="4ci64t6p32gvj298nVOF-29" target="4ci64t6p32gvj298nVOF-12">
          <mxGeometry relative="1" as="geometry">
            <Array as="points">
              <mxPoint x="100" y="605" />
              <mxPoint x="100" y="310" />
            </Array>
          </mxGeometry>
        </mxCell>
        <mxCell id="4ci64t6p32gvj298nVOF-29" value="ARE BLANKS FILLED?" style="rhombus;whiteSpace=wrap;html=1;" vertex="1" parent="1">
          <mxGeometry x="165" y="560" width="150" height="90" as="geometry" />
        </mxCell>
        <mxCell id="4ci64t6p32gvj298nVOF-39" style="edgeStyle=orthogonalEdgeStyle;rounded=0;orthogonalLoop=1;jettySize=auto;html=1;" edge="1" parent="1" source="4ci64t6p32gvj298nVOF-32">
          <mxGeometry relative="1" as="geometry">
            <mxPoint x="440" y="760" as="targetPoint" />
            <Array as="points">
              <mxPoint x="441" y="700" />
            </Array>
          </mxGeometry>
        </mxCell>
        <mxCell id="4ci64t6p32gvj298nVOF-40" style="edgeStyle=orthogonalEdgeStyle;rounded=0;orthogonalLoop=1;jettySize=auto;html=1;entryX=1;entryY=0.5;entryDx=0;entryDy=0;" edge="1" parent="1" source="4ci64t6p32gvj298nVOF-31" target="4ci64t6p32gvj298nVOF-12">
          <mxGeometry relative="1" as="geometry">
            <Array as="points">
              <mxPoint x="790" y="605" />
              <mxPoint x="790" y="310" />
            </Array>
          </mxGeometry>
        </mxCell>
        <mxCell id="4ci64t6p32gvj298nVOF-31" value="ANY LIVES LEFT?" style="rhombus;whiteSpace=wrap;html=1;" vertex="1" parent="1">
          <mxGeometry x="560" y="560" width="160" height="90" as="geometry" />
        </mxCell>
        <mxCell id="4ci64t6p32gvj298nVOF-42" value="YES" style="text;strokeColor=none;align=center;fillColor=none;html=1;verticalAlign=middle;whiteSpace=wrap;rounded=0;" vertex="1" parent="1">
          <mxGeometry x="280" y="380" width="60" height="30" as="geometry" />
        </mxCell>
        <mxCell id="4ci64t6p32gvj298nVOF-43" value="YES" style="text;strokeColor=none;align=center;fillColor=none;html=1;verticalAlign=middle;whiteSpace=wrap;rounded=0;" vertex="1" parent="1">
          <mxGeometry x="280" y="660" width="60" height="30" as="geometry" />
        </mxCell>
        <mxCell id="4ci64t6p32gvj298nVOF-44" value="YES" style="text;strokeColor=none;align=center;fillColor=none;html=1;verticalAlign=middle;whiteSpace=wrap;rounded=0;" vertex="1" parent="1">
          <mxGeometry x="540" y="660" width="60" height="30" as="geometry" />
        </mxCell>
        <mxCell id="4ci64t6p32gvj298nVOF-45" value="NO" style="text;strokeColor=none;align=center;fillColor=none;html=1;verticalAlign=middle;whiteSpace=wrap;rounded=0;" vertex="1" parent="1">
          <mxGeometry x="560" y="380" width="60" height="30" as="geometry" />
        </mxCell>
        <mxCell id="4ci64t6p32gvj298nVOF-46" value="NO" style="text;strokeColor=none;align=center;fillColor=none;html=1;verticalAlign=middle;whiteSpace=wrap;rounded=0;" vertex="1" parent="1">
          <mxGeometry x="720" y="570" width="60" height="30" as="geometry" />
        </mxCell>
        <mxCell id="4ci64t6p32gvj298nVOF-47" value="NO" style="text;strokeColor=none;align=center;fillColor=none;html=1;verticalAlign=middle;whiteSpace=wrap;rounded=0;" vertex="1" parent="1">
          <mxGeometry x="105" y="570" width="60" height="30" as="geometry" />
        </mxCell>
        <mxCell id="4ci64t6p32gvj298nVOF-48" value="" style="edgeStyle=orthogonalEdgeStyle;rounded=0;orthogonalLoop=1;jettySize=auto;html=1;" edge="1" parent="1" source="4ci64t6p32gvj298nVOF-31" target="4ci64t6p32gvj298nVOF-32">
          <mxGeometry relative="1" as="geometry">
            <mxPoint x="440" y="760" as="targetPoint" />
            <mxPoint x="640" y="650" as="sourcePoint" />
            <Array as="points">
              <mxPoint x="640" y="700" />
            </Array>
          </mxGeometry>
        </mxCell>
        <mxCell id="4ci64t6p32gvj298nVOF-32" value="GAME OVER" style="rounded=0;whiteSpace=wrap;html=1;" vertex="1" parent="1">
          <mxGeometry x="390" y="740" width="100" height="40" as="geometry" />
        </mxCell>
      </root>
    </mxGraphModel>
  </diagram>
</mxfile>
